<svg xmlns="http://www.w3.org/2000/svg" width="512" height="512" viewBox="0 0 512 512">
  <rect width="512" height="512" rx="104" fill="#FFF8E7"/>
  <path d="M312.99 332.20Q320.97 332.20 326.16 337.78Q331.35 343.37 330.55 351.35Q327.76 378.07 313.59 392.04Q299.43 406 275.89 406Q260.73 406 248.77 398.82Q236.80 391.64 229.82 379.27Q222.84 366.90 222.84 351.74L222.84 228.87Q222.84 225.28 219.24 225.28L197.70 225.28Q191.32 225.28 186.33 220.30Q181.35 215.31 181.35 208.93Q181.35 202.14 186.33 197.56Q191.32 192.97 197.70 192.97L219.24 192.97Q222.84 192.97 222.84 189.38L222.84 123.55Q222.84 116.37 228.02 111.19Q233.21 106 240.39 106Q247.57 106 252.56 111.19Q257.54 116.37 257.54 123.55L257.54 189.38Q257.54 192.97 261.13 192.97L307.01 192.97Q313.79 192.97 318.38 197.56Q322.97 202.14 322.97 208.93Q322.97 215.31 318.38 220.30Q313.79 225.28 307.01 225.28L261.13 225.28Q257.54 225.28 257.54 228.87L257.54 351.74Q257.54 352.94 258.54 357.73Q259.54 362.52 263.33 366.90Q267.12 371.29 275.89 371.29Q285.47 371.29 290.06 366.11Q294.64 360.92 296.24 347.36Q297.04 340.57 301.82 336.39Q306.61 332.20 312.99 332.20" fill="#2D4A3E"/>
</svg>
