<svg xmlns="http://www.w3.org/2000/svg" width="512" height="512" viewBox="0 0 512 512">
  <rect width="512" height="512" fill="#FFF8E7"/>
  <path d="M92.82 284.60Q95.71 284.60 97.58 286.62Q99.46 288.64 99.17 291.53Q98.16 301.20 93.04 306.25Q87.91 311.30 79.40 311.30Q73.91 311.30 69.58 308.71Q65.25 306.11 62.72 301.63Q60.20 297.16 60.20 291.67L60.20 247.22Q60.20 245.92 58.90 245.92L51.10 245.92Q48.79 245.92 46.99 244.11Q45.19 242.31 45.19 240Q45.19 237.54 46.99 235.88Q48.79 234.22 51.10 234.22L58.90 234.22Q60.20 234.22 60.20 232.93L60.20 209.11Q60.20 206.51 62.07 204.63Q63.95 202.76 66.55 202.76Q69.15 202.76 70.95 204.63Q72.76 206.51 72.76 209.11L72.76 232.93Q72.76 234.22 74.05 234.22L90.65 234.22Q93.11 234.22 94.77 235.88Q96.43 237.54 96.43 240Q96.43 242.31 94.77 244.11Q93.11 245.92 90.65 245.92L74.05 245.92Q72.76 245.92 72.76 247.22L72.76 291.67Q72.76 292.11 73.12 293.84Q73.48 295.57 74.85 297.16Q76.22 298.75 79.40 298.75Q82.86 298.75 84.52 296.87Q86.18 294.99 86.76 290.09Q87.05 287.63 88.78 286.12Q90.51 284.60 92.82 284.60M151.71 311.30Q143.48 311.30 136.27 308.27Q129.05 305.24 123.56 299.90Q118.08 294.56 114.98 287.42Q111.87 280.27 111.87 272.19Q111.87 264.10 114.98 256.96Q118.08 249.81 123.56 244.47Q129.05 239.13 136.27 236.10Q143.48 233.07 151.71 233.07Q159.94 233.07 167.08 236.10Q174.23 239.13 179.71 244.55Q185.20 249.96 188.30 257.03Q191.41 264.10 191.41 272.19Q191.41 280.27 188.30 287.34Q185.20 294.42 179.71 299.83Q174.23 305.24 167.08 308.27Q159.94 311.30 151.71 311.30M151.71 299.32Q159.36 299.32 165.57 295.72Q171.78 292.11 175.38 285.90Q178.99 279.69 178.99 272.19Q178.99 264.68 175.31 258.55Q171.63 252.41 165.50 248.73Q159.36 245.05 151.71 245.05Q143.92 245.05 137.71 248.66Q131.50 252.27 127.89 258.40Q124.29 264.54 124.29 272.19Q124.29 279.69 127.89 285.90Q131.50 292.11 137.78 295.72Q144.06 299.32 151.71 299.32M245.68 233.21Q254.77 233.21 261.56 236.68Q268.34 240.14 272.74 245.92Q277.15 251.69 279.31 258.55Q281.48 265.40 281.48 272.19Q281.48 279.12 279.02 286.04Q276.57 292.97 271.81 298.60Q267.04 304.23 260.11 307.70Q253.19 311.16 244.24 311.16Q238.90 311.16 234.06 309.28Q229.22 307.41 225.04 304.09Q223.45 302.79 223.45 303.65Q223.45 306.25 221.57 308.13Q219.70 310.01 217.10 310.01Q214.50 310.01 212.70 308.13Q210.89 306.25 210.89 303.65L210.89 213.15Q210.89 212 209.88 212Q208.44 212 207 212.21Q205.55 212.43 204.11 212.43Q201.80 212.43 200.07 210.77Q198.33 209.11 198.33 206.66Q198.33 203.91 200.21 202.18Q202.09 200.45 204.69 200.74Q206.85 200.88 209.23 201.10Q211.61 201.31 213.92 201.46Q217.82 201.60 220.64 204.35Q223.45 207.09 223.45 210.99L223.45 241.44Q223.45 242.31 223.88 242.60Q224.32 242.89 224.89 242.31Q229.08 238.27 234.28 235.74Q239.47 233.21 245.68 233.21M244.38 298.89Q251.16 298.89 256.65 295.35Q262.13 291.82 265.31 285.76Q268.49 279.69 268.49 272.04Q268.49 264.25 265.38 258.19Q262.28 252.12 256.94 248.73Q251.60 245.34 244.52 245.34Q238.75 245.34 233.34 247.94Q227.93 250.54 224.03 255.15Q223.45 255.88 223.45 256.74L223.45 287.63Q223.45 288.35 223.88 289.22Q230.81 298.89 244.38 298.89M362.02 298.60Q362.45 298.46 363.32 298.46Q365.77 298.46 367.51 300.26Q369.24 302.07 369.24 304.81Q369.24 307.84 367.07 309.79Q364.91 311.74 362.02 311.16Q359.86 310.58 357.76 310.37Q355.67 310.15 353.79 310.01Q350.91 310.01 348.60 308.42Q346.29 306.83 345.13 304.38Q344.41 303.08 343.40 303.94Q338.49 307.55 332.86 309.36Q327.23 311.16 319.58 311.16Q309.48 311.16 302.98 305.31Q296.49 299.47 296.49 290.23Q296.49 283.16 299.95 277.74Q303.42 272.33 309.55 269.23Q315.69 266.12 323.91 266.12Q328.24 266.12 332.94 266.99Q337.63 267.86 342.68 269.88Q342.82 269.88 342.97 269.95Q343.11 270.02 343.26 270.02Q344.27 270.02 344.27 268.87L344.27 264.39Q344.27 254.58 339.29 249.74Q334.31 244.91 327.38 244.91Q325.21 244.91 322.98 245.41Q320.74 245.92 318.43 246.78Q317.27 247.22 317.71 248.37Q317.85 248.95 317.92 249.38Q318 249.81 318 250.39Q318 254 315.40 256.81Q312.80 259.63 308.76 259.63Q304.57 259.63 302.05 256.67Q299.52 253.71 299.52 249.96Q299.52 248.08 300.24 246.21Q300.96 244.33 302.41 242.74Q306.45 238.12 312.44 235.60Q318.43 233.07 325.21 233.07Q340.22 233.07 348.45 241.23Q356.68 249.38 356.68 264.39L356.68 298.02Q356.68 299.32 357.69 299.32Q358.84 299.32 359.93 299.04Q361.01 298.75 362.02 298.60M319.58 299.04Q327.52 298.75 332.94 296.44Q338.35 294.13 343.69 288.79Q344.27 288.06 344.27 287.20L344.27 284.02Q344.27 283.01 343.40 282.58Q340.37 280.99 335.97 279.40Q331.56 277.82 324.20 277.82Q316.84 277.82 312.65 281.06Q308.47 284.31 308.47 290.23Q308.47 294.13 311.57 296.58Q314.68 299.04 319.58 299.04M456.28 299.76L460.46 299.47Q463.06 299.18 464.94 300.91Q466.81 302.64 466.81 305.39Q466.81 307.98 464.94 309.64Q463.06 311.30 460.46 311.16Q455.99 310.73 453.46 310.58Q450.94 310.44 448.63 310.44Q446.03 310.44 443.57 310.65Q441.12 310.87 436.79 311.16Q434.19 311.30 432.32 309.64Q430.44 307.98 430.44 305.39Q430.44 302.64 432.32 300.91Q434.19 299.18 436.79 299.47L440.98 299.76L441.27 299.76Q442.28 299.76 442.28 298.60L442.28 259.48Q442.28 252.41 440.11 249.38Q437.95 246.35 433.04 246.35Q421.35 246.35 406.91 259.48Q406.19 260.21 406.19 261.22L406.19 298.60Q406.19 299.90 407.49 299.76L411.67 299.47Q414.27 299.18 416.15 300.91Q418.03 302.64 418.03 305.39Q418.03 307.98 416.15 309.64Q414.27 311.30 411.67 311.16Q407.20 310.73 404.67 310.58Q402.15 310.44 399.84 310.44Q397.24 310.44 394.79 310.65Q392.33 310.87 388 311.16Q385.40 311.30 383.53 309.64Q381.65 307.98 381.65 305.39Q381.65 302.64 383.53 300.91Q385.40 299.18 388 299.47L392.33 299.76Q393.63 299.76 393.63 298.60L393.63 245.63Q393.63 244.47 392.62 244.47Q391.18 244.47 389.88 244.69Q388.58 244.91 387.14 244.91Q384.83 244.91 383.09 243.17Q381.36 241.44 381.36 238.99Q381.36 236.39 383.24 234.59Q385.12 232.78 387.71 233.07Q389.73 233.21 392.04 233.43Q394.35 233.65 396.66 233.79Q400.70 233.94 403.45 236.82Q406.19 239.71 406.19 243.46L406.19 244.91Q406.19 245.77 406.69 245.99Q407.20 246.21 407.78 245.63Q421.78 233.07 434.77 233.07Q454.98 233.07 454.98 259.63L454.98 298.60Q454.98 299.90 456.28 299.76" fill="#2D4A3E"/>
</svg>
